<svg aria-hidden="true" style="position: absolute; width: 0; height: 0; overflow: hidden;" version="1.1" xmlns="http://www.w3.org/2000/svg" xmlns:xlink="http://www.w3.org/1999/xlink">
<defs>
<symbol id="icon-AccountImg" viewBox="0 0 32 32">
<path fill="#5f6368" style="fill: var(--color1, #5f6368)" d="M16.001 2.667c-7.361 0-13.334 5.974-13.334 13.334s5.974 13.334 13.334 13.334 13.334-5.974 13.334-13.334-5.974-13.334-13.334-13.334zM16.001 8.001c2.574 0 4.667 2.094 4.667 4.667s-2.093 4.667-4.667 4.667-4.667-2.094-4.667-4.667 2.094-4.667 4.667-4.667zM16.001 26.669c-2.707 0-5.907-1.093-8.187-3.84 2.231-1.763 5.085-2.828 8.187-2.828s5.956 1.065 8.215 2.85l-0.028-0.021c-2.28 2.747-5.48 3.84-8.187 3.84z"></path>
</symbol>
<symbol id="icon-DeleteImg" viewBox="0 0 32 32">
<path   d="M19.453 10.667l-3.453 3.453-3.453-3.453-1.88 1.88 3.453 3.453-3.453 3.453 1.88 1.88 3.453-3.453 3.453 3.453 1.88-1.88-3.453-3.453 3.453-3.453-1.88-1.88zM16 2.667c-7.373 0-13.333 5.96-13.333 13.333s5.96 13.333 13.333 13.333 13.333-5.96 13.333-13.333-5.96-13.333-13.333-13.333zM16 26.667c-5.88 0-10.667-4.787-10.667-10.667s4.787-10.667 10.667-10.667 10.667 4.787 10.667 10.667-4.787 10.667-10.667 10.667z"></path>
</symbol>
<symbol id="icon-arrow_back" viewBox="0 0 32 32">
<path  d="M26.667 14.667h-16.227l7.453-7.453-1.893-1.88-10.667 10.667 10.667 10.667 1.88-1.88-7.44-7.453h16.227v-2.667z"></path>
</symbol>
</defs>
</svg>
